<svg xmlns="http://www.w3.org/2000/svg" width="54.897" height="63.697" viewBox="0 0 13.724 15.924"><path d="M6.86.002c1.322 0 2.644 0 3.966-.002.085 0 .11.018.11.107-.006.412 0 .824-.005 1.236 0 .076.019.096.095.096.864-.003 1.729-.001 2.593-.004.081 0 .106.02.105.103-.003.684-.001 1.368-.002 2.052a2.793 2.793 0 0 1-2.352 2.74 2.39 2.39 0 0 1-.418.033c-.05-.001-.068.014-.077.065-.297 1.635-1.457 2.866-3.08 3.269-.057.014-.076.036-.075.096.002.713.002 1.426 0 2.138 0 .07.022.086.087.085.283-.003.567-.002.85-.001.395 0 .622.228.622.623 0 .198.002.395-.001.593 0 .055.015.074.072.073.235-.003.47 0 .704-.003.065 0 .082.02.082.083a430.4 430.4 0 0 0 0 2.455c0 .071-.023.085-.088.085h-6.37c-.066 0-.087-.015-.087-.084.003-.82.002-1.638 0-2.456 0-.063.015-.084.08-.083.227.004.453-.001.68.003.068.002.093-.014.09-.088-.004-.2-.001-.4 0-.601 0-.36.233-.597.595-.6.295-.003.59-.002.884.001.065 0 .081-.019.081-.082-.002-.713-.002-1.425 0-2.138 0-.065-.022-.086-.081-.1-1.27-.323-2.19-1.076-2.76-2.254a3.639 3.639 0 0 1-.31-.995c-.011-.069-.036-.084-.103-.086A2.781 2.781 0 0 1 .002 3.585C.002 2.9.004 2.217 0 1.533c0-.082.025-.098.101-.098.865.003 1.729 0 2.593.004.074 0 .097-.017.096-.094C2.786.93 2.79.515 2.786.1c0-.078.02-.1.099-.1C4.21.003 5.535.002 6.86.002Z" fill="#ba97ea" fill-rule="evenodd" data-name="Path 45593"/></svg>