<svg xmlns="http://www.w3.org/2000/svg" width="72.657" height="45.445" viewBox="0 0 18.164 11.361"><g data-name="mortarboard (3)"><path d="M17.81 3.004 9.26.03a.539.539 0 0 0-.355 0L.355 3.004A.525.525 0 0 0 0 3.498c0 .223.142.42.354.495l8.55 2.997a.538.538 0 0 0 .356 0l8.55-2.997a.525.525 0 0 0 .354-.495.525.525 0 0 0-.355-.494Z" fill="#e7beed" fill-rule="evenodd" data-name="Path 29382"/><path d="M16.882 8.154V5.177l-1.067.243v2.734c-.322.118-.539.34-.539.594 0 .255.217.476.539.595v1.677c0 .189.239.341.534.341.294 0 .533-.152.533-.34V9.342c.322-.118.539-.34.539-.595 0-.254-.217-.476-.539-.594Z" fill="#e7beed" fill-rule="evenodd" data-name="Path 29383"/><path d="M9.082 7.816c-.182 0-.362-.03-.533-.09L3.753 6.04v2.31c0 .564.596 1.042 1.772 1.419 1.025.329 2.289.51 3.557.51 1.269 0 2.532-.181 3.557-.51 1.176-.377 1.773-.855 1.773-1.42V6.04L9.616 7.725c-.172.06-.352.091-.534.091Z" fill="#e7beed" fill-rule="evenodd" data-name="Path 29384"/></g></svg>