<svg xmlns="http://www.w3.org/2000/svg" width="55.867" height="56.6" viewBox="421.733 75.583 13.967 14.15"><g data-name="Group 95162"><path d="M421.862 77.043c.003-.047-.01-.106.012-.14.298-.464.471-1.106 1.191-1.052.751.056 1.382.797 1.49 1.772.124 1.118.503 2.136 1.04 3.11.701 1.265 1.724 2.176 3.023 2.798.85.407 1.742.758 2.67.803 1.819.086 2.978.992 3.67 2.609.134.386-.522-.1-.452.473.087.714.56.536.913.686.446 1.17.446 1.17-.775 1.17-2.974 0-5.948.004-8.921-.01-.234 0-.526.162-.714-.133.136-.285.113-.574.016-.864v-.579c.14-.632.03-1.268.056-1.901-.013.221.08.452-.089.657-.085-1.586-.845-2.888-1.671-4.189a9.955 9.955 0 0 1-1.459-3.921c.013-.43.013-.86 0-1.29Z" fill="#1ccdf9" fill-rule="evenodd" data-name="Path 45597"/><path d="M429.445 76.305c1.776-.48 3.4.591 3.936 2.597a.307.307 0 0 1 .06.176c-.047.246-.042.496-.04.744l-.007.094c-.353 1.733-1.652 2.87-3.257 2.852-1.593-.018-2.984-1.183-3.242-2.712-.27-1.612.613-3.125 2.161-3.69.086-.032.186-.028.279-.04.092.028-.037.008.053.04.105.04.215.01.319.04-.083-.043-.203.006-.262-.1Z" fill="#1ccdf9" fill-rule="evenodd" data-name="Path 45598"/><path d="M435.48 89.468c-.624.314-9.548.317-10.271 0h10.272Z" fill="#1ccdf9" fill-rule="evenodd" data-name="Path 45599"/><path d="M435.419 88.102c-1.102.273-1.102.273-1.027-1.404.311-.203.227.51.566.245.25.348.392.738.46 1.159Z" fill="#1ccdf9" fill-rule="evenodd" data-name="Path 45600"/><path d="M421.862 77.043c.212.43.211.859 0 1.289-.14-.43-.17-.86 0-1.29Z" fill="#1ccdf9" fill-rule="evenodd" data-name="Path 45601"/><path d="m424.992 86.442.067-.616c.029.625.262 1.253-.035 1.86l-.032-1.244Z" fill="#1ccdf9" fill-rule="evenodd" data-name="Path 45602"/><path d="m433.333 79.064.048-.162c.034.007.068.01.102.01.16.332.117.668.022 1.006l-.056.002-.055-.004-.064.004a2.008 2.008 0 0 1 .003-.856Z" fill="#1ccdf9" fill-rule="evenodd" data-name="Path 45603"/><path d="m433.504 79.918-.021-1.005c.273.329.24.665.021 1.005Z" fill="#1ccdf9" fill-rule="evenodd" data-name="Path 45604"/><path d="M425.025 88.265c.202.292.216.58-.016.864l.016-.864Z" fill="#1ccdf9" fill-rule="evenodd" data-name="Path 45605"/><path d="M422.838 75.663c.165-.084.314-.099.473.014-.165.086-.314.099-.473-.014Z" fill="#1ccdf9" fill-rule="evenodd" data-name="Path 45606"/><path d="m429.445 76.305.552.057c-.3.141-.49.142-.662-.036.03-.038.068-.044.11-.02Z" fill="#1ccdf9" fill-rule="evenodd" data-name="Path 45607"/><path d="m433.333 79.064-.003.856c-.165-.286-.176-.572.003-.856Z" fill="#1ccdf9" fill-rule="evenodd" data-name="Path 45608"/></g></svg>